<mxfile host="app.diagrams.net" modified="2021-11-22T22:50:58.351Z" agent="5.0 (Windows NT 10.0; Win64; x64) AppleWebKit/537.36 (KHTML, like Gecko) Chrome/95.0.4638.69 Safari/537.36 Edg/95.0.1020.53" etag="SWGIWlYyI3W73-ciyqCl" version="15.8.3" type="github">
  <diagram id="vZbtxj8ZJ_9b9shXOp8P" name="Page-1">
    <mxGraphModel dx="2037" dy="482" grid="1" gridSize="10" guides="1" tooltips="1" connect="1" arrows="1" fold="1" page="1" pageScale="1" pageWidth="1169" pageHeight="827" math="0" shadow="0">
      <root>
        <mxCell id="0" />
        <mxCell id="1" parent="0" />
        <mxCell id="MDpw3FP15gddesKLYSIS-1" value="Inicio" style="ellipse;whiteSpace=wrap;html=1;" parent="1" vertex="1">
          <mxGeometry x="340" y="10" width="130" height="60" as="geometry" />
        </mxCell>
        <mxCell id="MDpw3FP15gddesKLYSIS-4" value="entrar a la web" style="rounded=1;whiteSpace=wrap;html=1;" parent="1" vertex="1">
          <mxGeometry x="345" y="90" width="120" height="60" as="geometry" />
        </mxCell>
        <mxCell id="MDpw3FP15gddesKLYSIS-5" value="" style="endArrow=classic;html=1;rounded=0;" parent="1" edge="1">
          <mxGeometry width="50" height="50" relative="1" as="geometry">
            <mxPoint x="404.5" y="70" as="sourcePoint" />
            <mxPoint x="405" y="90" as="targetPoint" />
          </mxGeometry>
        </mxCell>
        <mxCell id="MDpw3FP15gddesKLYSIS-7" value="ingresar usuario y contraseña" style="shape=parallelogram;perimeter=parallelogramPerimeter;whiteSpace=wrap;html=1;fixedSize=1;" parent="1" vertex="1">
          <mxGeometry x="338" y="180" width="134" height="60" as="geometry" />
        </mxCell>
        <mxCell id="MDpw3FP15gddesKLYSIS-8" value="BD" style="shape=datastore;whiteSpace=wrap;html=1;" parent="1" vertex="1">
          <mxGeometry x="375" y="270" width="60" height="60" as="geometry" />
        </mxCell>
        <mxCell id="MDpw3FP15gddesKLYSIS-10" value="" style="endArrow=classic;html=1;rounded=0;exitX=0.5;exitY=1;exitDx=0;exitDy=0;entryX=0.5;entryY=0;entryDx=0;entryDy=0;" parent="1" source="MDpw3FP15gddesKLYSIS-4" target="MDpw3FP15gddesKLYSIS-7" edge="1">
          <mxGeometry width="50" height="50" relative="1" as="geometry">
            <mxPoint x="390" y="240" as="sourcePoint" />
            <mxPoint x="440" y="190" as="targetPoint" />
          </mxGeometry>
        </mxCell>
        <mxCell id="MDpw3FP15gddesKLYSIS-14" value="Crear nuevo ticket" style="rounded=1;whiteSpace=wrap;html=1;" parent="1" vertex="1">
          <mxGeometry x="80" y="190" width="100" height="40" as="geometry" />
        </mxCell>
        <mxCell id="MDpw3FP15gddesKLYSIS-16" value="Generar ticket" style="rounded=1;whiteSpace=wrap;html=1;" parent="1" vertex="1">
          <mxGeometry x="80" y="390" width="100" height="40" as="geometry" />
        </mxCell>
        <mxCell id="MDpw3FP15gddesKLYSIS-17" value="Datos almacenados" style="strokeWidth=2;html=1;shape=mxgraph.flowchart.stored_data;whiteSpace=wrap;fontStyle=1" parent="1" vertex="1">
          <mxGeometry x="80" y="541" width="100" height="60" as="geometry" />
        </mxCell>
        <mxCell id="MDpw3FP15gddesKLYSIS-18" value="BD" style="shape=datastore;whiteSpace=wrap;html=1;" parent="1" vertex="1">
          <mxGeometry x="100" y="460" width="60" height="60" as="geometry" />
        </mxCell>
        <mxCell id="MDpw3FP15gddesKLYSIS-19" value="Horario &amp;gt;5:30 pm" style="strokeWidth=2;html=1;shape=mxgraph.flowchart.decision;whiteSpace=wrap;" parent="1" vertex="1">
          <mxGeometry x="75" y="630" width="110" height="100" as="geometry" />
        </mxCell>
        <mxCell id="MDpw3FP15gddesKLYSIS-22" value="Datos almacenados" style="strokeWidth=2;html=1;shape=mxgraph.flowchart.stored_data;whiteSpace=wrap;" parent="1" vertex="1">
          <mxGeometry x="20" y="850" width="100" height="60" as="geometry" />
        </mxCell>
        <mxCell id="MDpw3FP15gddesKLYSIS-23" value="En espera para ser asignado" style="rounded=1;whiteSpace=wrap;html=1;" parent="1" vertex="1">
          <mxGeometry x="-130" y="1000" width="100" height="40" as="geometry" />
        </mxCell>
        <mxCell id="MDpw3FP15gddesKLYSIS-24" value="Se asigna al siguiente día" style="rounded=1;whiteSpace=wrap;html=1;" parent="1" vertex="1">
          <mxGeometry x="248" y="760" width="100" height="40" as="geometry" />
        </mxCell>
        <mxCell id="MDpw3FP15gddesKLYSIS-25" value="área correcta" style="strokeWidth=2;html=1;shape=mxgraph.flowchart.decision;whiteSpace=wrap;" parent="1" vertex="1">
          <mxGeometry x="190" y="990" width="110" height="100" as="geometry" />
        </mxCell>
        <mxCell id="MDpw3FP15gddesKLYSIS-26" value="Se asigna o auto asigna" style="rounded=1;whiteSpace=wrap;html=1;" parent="1" vertex="1">
          <mxGeometry x="-130" y="1040" width="100" height="40" as="geometry" />
        </mxCell>
        <mxCell id="MDpw3FP15gddesKLYSIS-27" value="" style="endArrow=classic;html=1;rounded=0;entryX=1;entryY=0.5;entryDx=0;entryDy=0;exitX=0;exitY=0.5;exitDx=0;exitDy=0;" parent="1" source="MDpw3FP15gddesKLYSIS-8" target="MDpw3FP15gddesKLYSIS-14" edge="1">
          <mxGeometry width="50" height="50" relative="1" as="geometry">
            <mxPoint x="230" y="210" as="sourcePoint" />
            <mxPoint x="300" y="220" as="targetPoint" />
            <Array as="points">
              <mxPoint x="280" y="300" />
              <mxPoint x="280" y="290" />
              <mxPoint x="280" y="210" />
            </Array>
          </mxGeometry>
        </mxCell>
        <mxCell id="MDpw3FP15gddesKLYSIS-28" value="" style="endArrow=classic;html=1;rounded=0;exitX=0.5;exitY=1;exitDx=0;exitDy=0;entryX=0.5;entryY=0;entryDx=0;entryDy=0;" parent="1" source="MDpw3FP15gddesKLYSIS-14" target="umUFj-V5khbd5GSOYIUC-16" edge="1">
          <mxGeometry width="50" height="50" relative="1" as="geometry">
            <mxPoint x="368" y="230" as="sourcePoint" />
            <mxPoint x="120" y="240" as="targetPoint" />
          </mxGeometry>
        </mxCell>
        <mxCell id="MDpw3FP15gddesKLYSIS-30" value="" style="endArrow=classic;html=1;rounded=0;entryX=0.5;entryY=0;entryDx=0;entryDy=0;exitX=0.5;exitY=1;exitDx=0;exitDy=0;" parent="1" source="MDpw3FP15gddesKLYSIS-16" target="MDpw3FP15gddesKLYSIS-18" edge="1">
          <mxGeometry width="50" height="50" relative="1" as="geometry">
            <mxPoint x="388" y="250" as="sourcePoint" />
            <mxPoint x="330" y="250" as="targetPoint" />
          </mxGeometry>
        </mxCell>
        <mxCell id="MDpw3FP15gddesKLYSIS-31" value="" style="endArrow=classic;html=1;rounded=0;entryX=0.5;entryY=0;entryDx=0;entryDy=0;exitX=0.5;exitY=1;exitDx=0;exitDy=0;entryPerimeter=0;" parent="1" source="MDpw3FP15gddesKLYSIS-18" target="MDpw3FP15gddesKLYSIS-17" edge="1">
          <mxGeometry width="50" height="50" relative="1" as="geometry">
            <mxPoint x="140" y="440" as="sourcePoint" />
            <mxPoint x="140" y="470" as="targetPoint" />
          </mxGeometry>
        </mxCell>
        <mxCell id="MDpw3FP15gddesKLYSIS-32" value="" style="endArrow=classic;html=1;rounded=0;entryX=0.5;entryY=0;entryDx=0;entryDy=0;exitX=0.5;exitY=1;exitDx=0;exitDy=0;entryPerimeter=0;exitPerimeter=0;" parent="1" source="MDpw3FP15gddesKLYSIS-17" target="MDpw3FP15gddesKLYSIS-19" edge="1">
          <mxGeometry width="50" height="50" relative="1" as="geometry">
            <mxPoint x="150" y="450" as="sourcePoint" />
            <mxPoint x="150" y="480" as="targetPoint" />
          </mxGeometry>
        </mxCell>
        <mxCell id="MDpw3FP15gddesKLYSIS-33" value="" style="endArrow=classic;html=1;rounded=0;exitX=0;exitY=0.5;exitDx=0;exitDy=0;exitPerimeter=0;entryX=0.5;entryY=0;entryDx=0;entryDy=0;entryPerimeter=0;" parent="1" source="MDpw3FP15gddesKLYSIS-19" target="MDpw3FP15gddesKLYSIS-121" edge="1">
          <mxGeometry width="50" height="50" relative="1" as="geometry">
            <mxPoint x="30" y="690" as="sourcePoint" />
            <mxPoint x="70" y="750" as="targetPoint" />
            <Array as="points">
              <mxPoint x="40" y="680" />
              <mxPoint x="40" y="740" />
              <mxPoint x="70" y="740" />
            </Array>
          </mxGeometry>
        </mxCell>
        <mxCell id="MDpw3FP15gddesKLYSIS-35" value="" style="endArrow=classic;html=1;rounded=0;exitX=1;exitY=0.5;exitDx=0;exitDy=0;exitPerimeter=0;entryX=-0.011;entryY=0.389;entryDx=0;entryDy=0;entryPerimeter=0;" parent="1" source="MDpw3FP15gddesKLYSIS-19" target="MDpw3FP15gddesKLYSIS-122" edge="1">
          <mxGeometry width="50" height="50" relative="1" as="geometry">
            <mxPoint x="170" y="470" as="sourcePoint" />
            <mxPoint x="220" y="680" as="targetPoint" />
          </mxGeometry>
        </mxCell>
        <mxCell id="MDpw3FP15gddesKLYSIS-37" value="" style="endArrow=classic;html=1;rounded=0;entryX=0.5;entryY=0;entryDx=0;entryDy=0;entryPerimeter=0;exitX=0.5;exitY=0.879;exitDx=0;exitDy=0;exitPerimeter=0;" parent="1" source="MDpw3FP15gddesKLYSIS-121" target="MDpw3FP15gddesKLYSIS-22" edge="1">
          <mxGeometry width="50" height="50" relative="1" as="geometry">
            <mxPoint x="100" y="840" as="sourcePoint" />
            <mxPoint x="80" y="790" as="targetPoint" />
          </mxGeometry>
        </mxCell>
        <mxCell id="MDpw3FP15gddesKLYSIS-38" value="" style="endArrow=classic;html=1;rounded=0;exitX=0.5;exitY=1;exitDx=0;exitDy=0;exitPerimeter=0;entryX=0.5;entryY=0;entryDx=0;entryDy=0;" parent="1" source="MDpw3FP15gddesKLYSIS-22" target="umUFj-V5khbd5GSOYIUC-11" edge="1">
          <mxGeometry width="50" height="50" relative="1" as="geometry">
            <mxPoint x="80" y="830" as="sourcePoint" />
            <mxPoint x="70" y="930" as="targetPoint" />
          </mxGeometry>
        </mxCell>
        <mxCell id="MDpw3FP15gddesKLYSIS-41" value="" style="endArrow=classic;html=1;rounded=0;entryX=0.5;entryY=0;entryDx=0;entryDy=0;exitX=0.546;exitY=0.854;exitDx=0;exitDy=0;exitPerimeter=0;" parent="1" source="MDpw3FP15gddesKLYSIS-122" target="MDpw3FP15gddesKLYSIS-24" edge="1">
          <mxGeometry width="50" height="50" relative="1" as="geometry">
            <mxPoint x="298" y="730" as="sourcePoint" />
            <mxPoint x="248" y="690" as="targetPoint" />
          </mxGeometry>
        </mxCell>
        <mxCell id="umUFj-V5khbd5GSOYIUC-2" value="" style="edgeStyle=orthogonalEdgeStyle;rounded=0;orthogonalLoop=1;jettySize=auto;html=1;" edge="1" parent="1" source="MDpw3FP15gddesKLYSIS-43" target="umUFj-V5khbd5GSOYIUC-1">
          <mxGeometry relative="1" as="geometry" />
        </mxCell>
        <mxCell id="MDpw3FP15gddesKLYSIS-43" value="Atender requisitos" style="rounded=1;whiteSpace=wrap;html=1;" parent="1" vertex="1">
          <mxGeometry x="195" y="1120" width="100" height="40" as="geometry" />
        </mxCell>
        <mxCell id="MDpw3FP15gddesKLYSIS-45" value="Datos almacenados" style="strokeWidth=2;html=1;shape=mxgraph.flowchart.stored_data;whiteSpace=wrap;" parent="1" vertex="1">
          <mxGeometry x="195" y="1330" width="100" height="60" as="geometry" />
        </mxCell>
        <mxCell id="MDpw3FP15gddesKLYSIS-46" value="BD" style="shape=datastore;whiteSpace=wrap;html=1;" parent="1" vertex="1">
          <mxGeometry x="215" y="1430" width="60" height="60" as="geometry" />
        </mxCell>
        <mxCell id="MDpw3FP15gddesKLYSIS-47" value="Fin" style="ellipse;whiteSpace=wrap;html=1;" parent="1" vertex="1">
          <mxGeometry x="420" y="1430" width="130" height="60" as="geometry" />
        </mxCell>
        <mxCell id="MDpw3FP15gddesKLYSIS-48" value="" style="endArrow=classic;html=1;rounded=0;entryX=0.5;entryY=0;entryDx=0;entryDy=0;exitX=0.5;exitY=1;exitDx=0;exitDy=0;exitPerimeter=0;" parent="1" source="MDpw3FP15gddesKLYSIS-25" target="MDpw3FP15gddesKLYSIS-43" edge="1">
          <mxGeometry width="50" height="50" relative="1" as="geometry">
            <mxPoint x="130" y="1050" as="sourcePoint" />
            <mxPoint x="200" y="1050" as="targetPoint" />
          </mxGeometry>
        </mxCell>
        <mxCell id="MDpw3FP15gddesKLYSIS-51" value="" style="endArrow=classic;html=1;rounded=0;entryX=0.5;entryY=0;entryDx=0;entryDy=0;exitX=0.5;exitY=1;exitDx=0;exitDy=0;exitPerimeter=0;" parent="1" source="MDpw3FP15gddesKLYSIS-45" target="MDpw3FP15gddesKLYSIS-46" edge="1">
          <mxGeometry width="50" height="50" relative="1" as="geometry">
            <mxPoint x="160" y="1080" as="sourcePoint" />
            <mxPoint x="230" y="1080" as="targetPoint" />
          </mxGeometry>
        </mxCell>
        <mxCell id="MDpw3FP15gddesKLYSIS-52" value="" style="endArrow=classic;html=1;rounded=0;entryX=0;entryY=0.5;entryDx=0;entryDy=0;exitX=1;exitY=0.5;exitDx=0;exitDy=0;" parent="1" source="MDpw3FP15gddesKLYSIS-46" target="MDpw3FP15gddesKLYSIS-47" edge="1">
          <mxGeometry width="50" height="50" relative="1" as="geometry">
            <mxPoint x="255" y="1330" as="sourcePoint" />
            <mxPoint x="255" y="1360" as="targetPoint" />
          </mxGeometry>
        </mxCell>
        <mxCell id="MDpw3FP15gddesKLYSIS-53" value="SI" style="text;html=1;strokeColor=none;fillColor=none;align=center;verticalAlign=middle;whiteSpace=wrap;rounded=0;" parent="1" vertex="1">
          <mxGeometry x="248" y="1090" width="30" height="20" as="geometry" />
        </mxCell>
        <mxCell id="MDpw3FP15gddesKLYSIS-54" value="Proceder a mandar el ticket al área correcta" style="rounded=1;whiteSpace=wrap;html=1;" parent="1" vertex="1">
          <mxGeometry x="340" y="1020" width="100" height="40" as="geometry" />
        </mxCell>
        <mxCell id="MDpw3FP15gddesKLYSIS-55" value="" style="endArrow=classic;html=1;rounded=0;entryX=0;entryY=0.5;entryDx=0;entryDy=0;exitX=1;exitY=0.5;exitDx=0;exitDy=0;exitPerimeter=0;" parent="1" source="MDpw3FP15gddesKLYSIS-25" target="MDpw3FP15gddesKLYSIS-54" edge="1">
          <mxGeometry width="50" height="50" relative="1" as="geometry">
            <mxPoint x="255" y="1100" as="sourcePoint" />
            <mxPoint x="255" y="1130" as="targetPoint" />
          </mxGeometry>
        </mxCell>
        <mxCell id="MDpw3FP15gddesKLYSIS-56" value="" style="endArrow=classic;html=1;rounded=0;exitX=0.44;exitY=-0.05;exitDx=0;exitDy=0;exitPerimeter=0;" parent="1" source="MDpw3FP15gddesKLYSIS-54" edge="1">
          <mxGeometry width="50" height="50" relative="1" as="geometry">
            <mxPoint x="310" y="1050" as="sourcePoint" />
            <mxPoint x="70" y="970" as="targetPoint" />
            <Array as="points">
              <mxPoint x="384" y="970" />
            </Array>
          </mxGeometry>
        </mxCell>
        <mxCell id="MDpw3FP15gddesKLYSIS-58" value="Selección ticket" style="rounded=1;whiteSpace=wrap;html=1;" parent="1" vertex="1">
          <mxGeometry x="355" y="370" width="100" height="40" as="geometry" />
        </mxCell>
        <mxCell id="MDpw3FP15gddesKLYSIS-59" value="Ticket disponible" style="strokeWidth=2;html=1;shape=mxgraph.flowchart.decision;whiteSpace=wrap;" parent="1" vertex="1">
          <mxGeometry x="350" y="440" width="110" height="100" as="geometry" />
        </mxCell>
        <mxCell id="MDpw3FP15gddesKLYSIS-60" value="Cuadro de usuarios del área" style="rounded=1;whiteSpace=wrap;html=1;" parent="1" vertex="1">
          <mxGeometry x="420" y="570" width="100" height="40" as="geometry" />
        </mxCell>
        <mxCell id="MDpw3FP15gddesKLYSIS-61" value="Seleccionar usuario" style="rounded=1;whiteSpace=wrap;html=1;" parent="1" vertex="1">
          <mxGeometry x="420" y="630" width="100" height="40" as="geometry" />
        </mxCell>
        <mxCell id="MDpw3FP15gddesKLYSIS-62" value="Usuario disponible" style="strokeWidth=2;html=1;shape=mxgraph.flowchart.decision;whiteSpace=wrap;" parent="1" vertex="1">
          <mxGeometry x="455" y="720" width="120" height="100" as="geometry" />
        </mxCell>
        <mxCell id="MDpw3FP15gddesKLYSIS-70" value="A" style="verticalLabelPosition=bottom;verticalAlign=top;html=1;shape=mxgraph.flowchart.on-page_reference;" parent="1" vertex="1">
          <mxGeometry x="495" y="850" width="40" height="35" as="geometry" />
        </mxCell>
        <mxCell id="MDpw3FP15gddesKLYSIS-75" value="" style="endArrow=classic;html=1;rounded=0;exitX=1;exitY=0.5;exitDx=0;exitDy=0;entryX=0;entryY=0.5;entryDx=0;entryDy=0;entryPerimeter=0;" parent="1" source="MDpw3FP15gddesKLYSIS-8" target="MDpw3FP15gddesKLYSIS-89" edge="1">
          <mxGeometry width="50" height="50" relative="1" as="geometry">
            <mxPoint x="590" y="220" as="sourcePoint" />
            <mxPoint x="520" y="209.9999999999999" as="targetPoint" />
            <Array as="points">
              <mxPoint x="490" y="300" />
              <mxPoint x="490" y="210" />
            </Array>
          </mxGeometry>
        </mxCell>
        <mxCell id="MDpw3FP15gddesKLYSIS-76" value="" style="endArrow=classic;html=1;rounded=0;exitX=0.5;exitY=1;exitDx=0;exitDy=0;entryX=0.5;entryY=0;entryDx=0;entryDy=0;" parent="1" source="MDpw3FP15gddesKLYSIS-7" target="MDpw3FP15gddesKLYSIS-8" edge="1">
          <mxGeometry width="50" height="50" relative="1" as="geometry">
            <mxPoint x="415" y="160" as="sourcePoint" />
            <mxPoint x="415" y="190" as="targetPoint" />
          </mxGeometry>
        </mxCell>
        <mxCell id="MDpw3FP15gddesKLYSIS-77" value="" style="endArrow=classic;html=1;rounded=0;exitX=0.5;exitY=1;exitDx=0;exitDy=0;entryX=0.5;entryY=0;entryDx=0;entryDy=0;" parent="1" source="MDpw3FP15gddesKLYSIS-8" target="MDpw3FP15gddesKLYSIS-58" edge="1">
          <mxGeometry width="50" height="50" relative="1" as="geometry">
            <mxPoint x="415" y="250" as="sourcePoint" />
            <mxPoint x="405" y="364" as="targetPoint" />
          </mxGeometry>
        </mxCell>
        <mxCell id="MDpw3FP15gddesKLYSIS-78" value="" style="endArrow=classic;html=1;rounded=0;exitX=0.5;exitY=1;exitDx=0;exitDy=0;" parent="1" source="MDpw3FP15gddesKLYSIS-24" edge="1">
          <mxGeometry width="50" height="50" relative="1" as="geometry">
            <mxPoint x="308" y="715" as="sourcePoint" />
            <mxPoint x="298" y="970" as="targetPoint" />
          </mxGeometry>
        </mxCell>
        <mxCell id="MDpw3FP15gddesKLYSIS-79" value="" style="endArrow=classic;html=1;rounded=0;exitX=0.5;exitY=1;exitDx=0;exitDy=0;entryX=0.5;entryY=0;entryDx=0;entryDy=0;entryPerimeter=0;" parent="1" source="MDpw3FP15gddesKLYSIS-58" target="MDpw3FP15gddesKLYSIS-59" edge="1">
          <mxGeometry width="50" height="50" relative="1" as="geometry">
            <mxPoint x="415" y="340" as="sourcePoint" />
            <mxPoint x="415" y="380" as="targetPoint" />
          </mxGeometry>
        </mxCell>
        <mxCell id="MDpw3FP15gddesKLYSIS-80" value="" style="endArrow=classic;html=1;rounded=0;exitX=0.5;exitY=1;exitDx=0;exitDy=0;entryX=0;entryY=0.5;entryDx=0;entryDy=0;exitPerimeter=0;" parent="1" source="MDpw3FP15gddesKLYSIS-59" target="MDpw3FP15gddesKLYSIS-60" edge="1">
          <mxGeometry width="50" height="50" relative="1" as="geometry">
            <mxPoint x="415" y="420" as="sourcePoint" />
            <mxPoint x="415" y="450" as="targetPoint" />
            <Array as="points">
              <mxPoint x="405" y="590" />
            </Array>
          </mxGeometry>
        </mxCell>
        <mxCell id="MDpw3FP15gddesKLYSIS-81" value="" style="endArrow=classic;html=1;rounded=0;exitX=0.5;exitY=1;exitDx=0;exitDy=0;entryX=0.5;entryY=0;entryDx=0;entryDy=0;" parent="1" source="MDpw3FP15gddesKLYSIS-60" target="MDpw3FP15gddesKLYSIS-61" edge="1">
          <mxGeometry width="50" height="50" relative="1" as="geometry">
            <mxPoint x="425" y="430" as="sourcePoint" />
            <mxPoint x="425" y="460" as="targetPoint" />
          </mxGeometry>
        </mxCell>
        <mxCell id="umUFj-V5khbd5GSOYIUC-13" value="" style="edgeStyle=orthogonalEdgeStyle;rounded=0;orthogonalLoop=1;jettySize=auto;html=1;" edge="1" parent="1" source="MDpw3FP15gddesKLYSIS-83" target="umUFj-V5khbd5GSOYIUC-11">
          <mxGeometry relative="1" as="geometry" />
        </mxCell>
        <mxCell id="MDpw3FP15gddesKLYSIS-83" value="A" style="verticalLabelPosition=bottom;verticalAlign=top;html=1;shape=mxgraph.flowchart.on-page_reference;" parent="1" vertex="1">
          <mxGeometry x="50" y="1090" width="40" height="35" as="geometry" />
        </mxCell>
        <mxCell id="MDpw3FP15gddesKLYSIS-86" value="" style="endArrow=classic;html=1;rounded=0;exitX=0.5;exitY=1;exitDx=0;exitDy=0;entryX=0.5;entryY=0;entryDx=0;entryDy=0;entryPerimeter=0;" parent="1" source="MDpw3FP15gddesKLYSIS-61" target="MDpw3FP15gddesKLYSIS-62" edge="1">
          <mxGeometry width="50" height="50" relative="1" as="geometry">
            <mxPoint x="480" y="611" as="sourcePoint" />
            <mxPoint x="480" y="640" as="targetPoint" />
            <Array as="points">
              <mxPoint x="470" y="690" />
              <mxPoint x="515" y="690" />
            </Array>
          </mxGeometry>
        </mxCell>
        <mxCell id="MDpw3FP15gddesKLYSIS-87" value="" style="endArrow=classic;html=1;rounded=0;exitX=0.5;exitY=1;exitDx=0;exitDy=0;entryX=0.5;entryY=0;entryDx=0;entryDy=0;exitPerimeter=0;entryPerimeter=0;" parent="1" source="MDpw3FP15gddesKLYSIS-62" target="MDpw3FP15gddesKLYSIS-70" edge="1">
          <mxGeometry width="50" height="50" relative="1" as="geometry">
            <mxPoint x="480" y="611" as="sourcePoint" />
            <mxPoint x="480" y="640" as="targetPoint" />
          </mxGeometry>
        </mxCell>
        <mxCell id="MDpw3FP15gddesKLYSIS-89" value="Añadir Usuario" style="strokeWidth=2;html=1;shape=mxgraph.flowchart.decision;whiteSpace=wrap;" parent="1" vertex="1">
          <mxGeometry x="640" y="160" width="110" height="100" as="geometry" />
        </mxCell>
        <mxCell id="MDpw3FP15gddesKLYSIS-91" value="Llenar formulario con:&amp;nbsp;&lt;br&gt;Nombre&amp;nbsp;&lt;br&gt;Contraseña" style="rounded=1;whiteSpace=wrap;html=1;" parent="1" vertex="1">
          <mxGeometry x="627.5" y="450" width="135" height="56" as="geometry" />
        </mxCell>
        <mxCell id="MDpw3FP15gddesKLYSIS-92" value="&quot;Usuario editado exitosamente&quot;" style="strokeWidth=2;html=1;shape=mxgraph.flowchart.document2;whiteSpace=wrap;size=0.25;" parent="1" vertex="1">
          <mxGeometry x="797.5" y="700" width="110" height="69" as="geometry" />
        </mxCell>
        <mxCell id="MDpw3FP15gddesKLYSIS-93" value="Datos almacenados" style="strokeWidth=2;html=1;shape=mxgraph.flowchart.stored_data;whiteSpace=wrap;fontStyle=1" parent="1" vertex="1">
          <mxGeometry x="805" y="910" width="100" height="60" as="geometry" />
        </mxCell>
        <mxCell id="MDpw3FP15gddesKLYSIS-94" value="BD" style="shape=datastore;whiteSpace=wrap;html=1;" parent="1" vertex="1">
          <mxGeometry x="825" y="1010" width="60" height="60" as="geometry" />
        </mxCell>
        <mxCell id="MDpw3FP15gddesKLYSIS-96" value="Botón usuarios" style="rounded=1;whiteSpace=wrap;html=1;" parent="1" vertex="1">
          <mxGeometry x="645" y="310" width="100" height="40" as="geometry" />
        </mxCell>
        <mxCell id="MDpw3FP15gddesKLYSIS-97" value="Añadir Usuario" style="rounded=1;whiteSpace=wrap;html=1;" parent="1" vertex="1">
          <mxGeometry x="645" y="380" width="100" height="40" as="geometry" />
        </mxCell>
        <mxCell id="MDpw3FP15gddesKLYSIS-100" value="Botón eliminar Usuario" style="rounded=1;whiteSpace=wrap;html=1;" parent="1" vertex="1">
          <mxGeometry x="957.5" y="530" width="100" height="40" as="geometry" />
        </mxCell>
        <mxCell id="MDpw3FP15gddesKLYSIS-102" value="NO" style="text;html=1;strokeColor=none;fillColor=none;align=center;verticalAlign=middle;whiteSpace=wrap;rounded=0;" parent="1" vertex="1">
          <mxGeometry x="300" y="1010" width="30" height="20" as="geometry" />
        </mxCell>
        <mxCell id="MDpw3FP15gddesKLYSIS-103" value="SI" style="text;html=1;strokeColor=none;fillColor=none;align=center;verticalAlign=middle;whiteSpace=wrap;rounded=0;" parent="1" vertex="1">
          <mxGeometry x="190" y="660" width="30" height="20" as="geometry" />
        </mxCell>
        <mxCell id="MDpw3FP15gddesKLYSIS-104" value="NO" style="text;html=1;strokeColor=none;fillColor=none;align=center;verticalAlign=middle;whiteSpace=wrap;rounded=0;" parent="1" vertex="1">
          <mxGeometry x="45" y="660" width="30" height="20" as="geometry" />
        </mxCell>
        <mxCell id="MDpw3FP15gddesKLYSIS-105" value="SI" style="text;html=1;strokeColor=none;fillColor=none;align=center;verticalAlign=middle;whiteSpace=wrap;rounded=0;" parent="1" vertex="1">
          <mxGeometry x="375" y="550" width="30" height="20" as="geometry" />
        </mxCell>
        <mxCell id="MDpw3FP15gddesKLYSIS-106" value="" style="endArrow=classic;html=1;rounded=0;exitX=1;exitY=0.5;exitDx=0;exitDy=0;entryX=1;entryY=0.5;entryDx=0;entryDy=0;exitPerimeter=0;" parent="1" source="MDpw3FP15gddesKLYSIS-59" target="MDpw3FP15gddesKLYSIS-58" edge="1">
          <mxGeometry width="50" height="50" relative="1" as="geometry">
            <mxPoint x="415" y="340" as="sourcePoint" />
            <mxPoint x="415" y="380" as="targetPoint" />
            <Array as="points">
              <mxPoint x="500" y="490" />
              <mxPoint x="500" y="390" />
            </Array>
          </mxGeometry>
        </mxCell>
        <mxCell id="MDpw3FP15gddesKLYSIS-107" value="NO" style="text;html=1;strokeColor=none;fillColor=none;align=center;verticalAlign=middle;whiteSpace=wrap;rounded=0;" parent="1" vertex="1">
          <mxGeometry x="455" y="470" width="30" height="20" as="geometry" />
        </mxCell>
        <mxCell id="MDpw3FP15gddesKLYSIS-109" value="" style="endArrow=classic;html=1;rounded=0;exitX=1;exitY=0.5;exitDx=0;exitDy=0;exitPerimeter=0;" parent="1" source="MDpw3FP15gddesKLYSIS-89" edge="1">
          <mxGeometry width="50" height="50" relative="1" as="geometry">
            <mxPoint x="590" y="220" as="sourcePoint" />
            <mxPoint x="800" y="210" as="targetPoint" />
          </mxGeometry>
        </mxCell>
        <mxCell id="MDpw3FP15gddesKLYSIS-110" value="" style="endArrow=classic;html=1;rounded=0;exitX=0.5;exitY=1;exitDx=0;exitDy=0;exitPerimeter=0;" parent="1" source="MDpw3FP15gddesKLYSIS-89" edge="1">
          <mxGeometry width="50" height="50" relative="1" as="geometry">
            <mxPoint x="600" y="230" as="sourcePoint" />
            <mxPoint x="695" y="310" as="targetPoint" />
          </mxGeometry>
        </mxCell>
        <mxCell id="MDpw3FP15gddesKLYSIS-114" value="" style="endArrow=classic;html=1;rounded=0;exitX=0.5;exitY=1;exitDx=0;exitDy=0;entryX=0.5;entryY=0;entryDx=0;entryDy=0;" parent="1" source="MDpw3FP15gddesKLYSIS-96" target="MDpw3FP15gddesKLYSIS-97" edge="1">
          <mxGeometry width="50" height="50" relative="1" as="geometry">
            <mxPoint x="857.5" y="679.25" as="sourcePoint" />
            <mxPoint x="720" y="370" as="targetPoint" />
          </mxGeometry>
        </mxCell>
        <mxCell id="MDpw3FP15gddesKLYSIS-121" value="&lt;span&gt;&quot;ticket generado exitosamente&quot;&lt;/span&gt;" style="strokeWidth=2;html=1;shape=mxgraph.flowchart.document2;whiteSpace=wrap;size=0.25;" parent="1" vertex="1">
          <mxGeometry x="20" y="767" width="100" height="60" as="geometry" />
        </mxCell>
        <mxCell id="MDpw3FP15gddesKLYSIS-122" value="&lt;span&gt;&quot;&lt;/span&gt;ticket generado exitosamente fuera del horario asignado&lt;span&gt;&quot;&lt;/span&gt;" style="strokeWidth=2;html=1;shape=mxgraph.flowchart.document2;whiteSpace=wrap;size=0.25;" parent="1" vertex="1">
          <mxGeometry x="230" y="650" width="125" height="80" as="geometry" />
        </mxCell>
        <mxCell id="BtmakRse8ogMZQEhPcUy-2" value="Editar usuario" style="strokeWidth=2;html=1;shape=mxgraph.flowchart.decision;whiteSpace=wrap;" parent="1" vertex="1">
          <mxGeometry x="797.5" y="160" width="110" height="100" as="geometry" />
        </mxCell>
        <mxCell id="BtmakRse8ogMZQEhPcUy-3" value="Eliminar usuario" style="strokeWidth=2;html=1;shape=mxgraph.flowchart.decision;whiteSpace=wrap;" parent="1" vertex="1">
          <mxGeometry x="952.5" y="160" width="110" height="100" as="geometry" />
        </mxCell>
        <mxCell id="BtmakRse8ogMZQEhPcUy-5" value="" style="endArrow=classic;html=1;rounded=0;exitX=1;exitY=0.5;exitDx=0;exitDy=0;exitPerimeter=0;entryX=0;entryY=0.5;entryDx=0;entryDy=0;entryPerimeter=0;" parent="1" source="BtmakRse8ogMZQEhPcUy-2" target="BtmakRse8ogMZQEhPcUy-3" edge="1">
          <mxGeometry width="50" height="50" relative="1" as="geometry">
            <mxPoint x="760" y="220" as="sourcePoint" />
            <mxPoint x="810" y="220" as="targetPoint" />
          </mxGeometry>
        </mxCell>
        <mxCell id="BtmakRse8ogMZQEhPcUy-6" value="Botón usuarios" style="rounded=1;whiteSpace=wrap;html=1;" parent="1" vertex="1">
          <mxGeometry x="802.5" y="310" width="100" height="40" as="geometry" />
        </mxCell>
        <mxCell id="BtmakRse8ogMZQEhPcUy-7" value="Botón usuarios" style="rounded=1;whiteSpace=wrap;html=1;" parent="1" vertex="1">
          <mxGeometry x="957.5" y="310" width="100" height="40" as="geometry" />
        </mxCell>
        <mxCell id="BtmakRse8ogMZQEhPcUy-8" value="" style="endArrow=classic;html=1;rounded=0;exitX=0.5;exitY=1;exitDx=0;exitDy=0;exitPerimeter=0;entryX=0.5;entryY=0;entryDx=0;entryDy=0;" parent="1" source="BtmakRse8ogMZQEhPcUy-2" target="BtmakRse8ogMZQEhPcUy-6" edge="1">
          <mxGeometry width="50" height="50" relative="1" as="geometry">
            <mxPoint x="705" y="270" as="sourcePoint" />
            <mxPoint x="705" y="320" as="targetPoint" />
          </mxGeometry>
        </mxCell>
        <mxCell id="BtmakRse8ogMZQEhPcUy-9" value="" style="endArrow=classic;html=1;rounded=0;exitX=0.5;exitY=1;exitDx=0;exitDy=0;exitPerimeter=0;entryX=0.5;entryY=0;entryDx=0;entryDy=0;" parent="1" source="BtmakRse8ogMZQEhPcUy-3" target="BtmakRse8ogMZQEhPcUy-7" edge="1">
          <mxGeometry width="50" height="50" relative="1" as="geometry">
            <mxPoint x="862.5" y="270" as="sourcePoint" />
            <mxPoint x="862.5" y="320" as="targetPoint" />
          </mxGeometry>
        </mxCell>
        <mxCell id="BtmakRse8ogMZQEhPcUy-10" value="Selección de usuario" style="rounded=1;whiteSpace=wrap;html=1;" parent="1" vertex="1">
          <mxGeometry x="802.5" y="460" width="100" height="40" as="geometry" />
        </mxCell>
        <mxCell id="BtmakRse8ogMZQEhPcUy-12" value="Selección de usuario" style="rounded=1;whiteSpace=wrap;html=1;" parent="1" vertex="1">
          <mxGeometry x="957.5" y="460" width="100" height="40" as="geometry" />
        </mxCell>
        <mxCell id="BtmakRse8ogMZQEhPcUy-13" value="Cuadro de usuarios del área" style="rounded=1;whiteSpace=wrap;html=1;" parent="1" vertex="1">
          <mxGeometry x="802.5" y="380" width="100" height="40" as="geometry" />
        </mxCell>
        <mxCell id="BtmakRse8ogMZQEhPcUy-14" value="Cuadro de usuarios del área" style="rounded=1;whiteSpace=wrap;html=1;" parent="1" vertex="1">
          <mxGeometry x="957.5" y="380" width="100" height="40" as="geometry" />
        </mxCell>
        <mxCell id="BtmakRse8ogMZQEhPcUy-15" value="Botón Editar usuario" style="rounded=1;whiteSpace=wrap;html=1;" parent="1" vertex="1">
          <mxGeometry x="802.5" y="530" width="100" height="40" as="geometry" />
        </mxCell>
        <mxCell id="BtmakRse8ogMZQEhPcUy-16" value="Llenar formulario con:&amp;nbsp;&lt;br&gt;Nombre&amp;nbsp;&lt;br&gt;Contraseña" style="rounded=1;whiteSpace=wrap;html=1;" parent="1" vertex="1">
          <mxGeometry x="785" y="604" width="135" height="56" as="geometry" />
        </mxCell>
        <mxCell id="BtmakRse8ogMZQEhPcUy-17" value="&quot;Desea eliminar usuario&quot;" style="strokeWidth=2;html=1;shape=mxgraph.flowchart.decision;whiteSpace=wrap;" parent="1" vertex="1">
          <mxGeometry x="952.5" y="610" width="110" height="100" as="geometry" />
        </mxCell>
        <mxCell id="BtmakRse8ogMZQEhPcUy-19" value="&quot;Usuario Eliminado&quot;" style="strokeWidth=2;html=1;shape=mxgraph.flowchart.document2;whiteSpace=wrap;size=0.25;" parent="1" vertex="1">
          <mxGeometry x="957.5" y="827" width="110" height="69" as="geometry" />
        </mxCell>
        <mxCell id="BtmakRse8ogMZQEhPcUy-20" value="Botón eliminar" style="rounded=1;whiteSpace=wrap;html=1;" parent="1" vertex="1">
          <mxGeometry x="957.5" y="750" width="100" height="40" as="geometry" />
        </mxCell>
        <mxCell id="BtmakRse8ogMZQEhPcUy-22" value="&quot;Desea realizar otra acción&quot;" style="strokeWidth=2;html=1;shape=mxgraph.flowchart.decision;whiteSpace=wrap;" parent="1" vertex="1">
          <mxGeometry x="790" y="1110" width="130" height="120" as="geometry" />
        </mxCell>
        <mxCell id="BtmakRse8ogMZQEhPcUy-23" value="" style="endArrow=classic;html=1;rounded=0;exitX=0.5;exitY=1;exitDx=0;exitDy=0;entryX=0.5;entryY=0;entryDx=0;entryDy=0;" parent="1" source="BtmakRse8ogMZQEhPcUy-7" target="BtmakRse8ogMZQEhPcUy-14" edge="1">
          <mxGeometry width="50" height="50" relative="1" as="geometry">
            <mxPoint x="705" y="360" as="sourcePoint" />
            <mxPoint x="705" y="390" as="targetPoint" />
          </mxGeometry>
        </mxCell>
        <mxCell id="BtmakRse8ogMZQEhPcUy-24" value="" style="endArrow=classic;html=1;rounded=0;exitX=0.5;exitY=1;exitDx=0;exitDy=0;entryX=0.5;entryY=0;entryDx=0;entryDy=0;" parent="1" source="BtmakRse8ogMZQEhPcUy-6" target="BtmakRse8ogMZQEhPcUy-13" edge="1">
          <mxGeometry width="50" height="50" relative="1" as="geometry">
            <mxPoint x="715" y="370" as="sourcePoint" />
            <mxPoint x="715" y="400" as="targetPoint" />
          </mxGeometry>
        </mxCell>
        <mxCell id="BtmakRse8ogMZQEhPcUy-25" value="" style="endArrow=classic;html=1;rounded=0;exitX=0.5;exitY=1;exitDx=0;exitDy=0;" parent="1" source="MDpw3FP15gddesKLYSIS-97" edge="1">
          <mxGeometry width="50" height="50" relative="1" as="geometry">
            <mxPoint x="725" y="380" as="sourcePoint" />
            <mxPoint x="695" y="446" as="targetPoint" />
          </mxGeometry>
        </mxCell>
        <mxCell id="BtmakRse8ogMZQEhPcUy-26" value="" style="endArrow=classic;html=1;rounded=0;exitX=0.5;exitY=1;exitDx=0;exitDy=0;entryX=0.5;entryY=0;entryDx=0;entryDy=0;" parent="1" source="BtmakRse8ogMZQEhPcUy-14" target="BtmakRse8ogMZQEhPcUy-12" edge="1">
          <mxGeometry width="50" height="50" relative="1" as="geometry">
            <mxPoint x="735" y="390" as="sourcePoint" />
            <mxPoint x="735" y="420" as="targetPoint" />
          </mxGeometry>
        </mxCell>
        <mxCell id="BtmakRse8ogMZQEhPcUy-27" value="" style="endArrow=classic;html=1;rounded=0;exitX=0.5;exitY=1;exitDx=0;exitDy=0;entryX=0.5;entryY=0;entryDx=0;entryDy=0;" parent="1" source="BtmakRse8ogMZQEhPcUy-13" target="BtmakRse8ogMZQEhPcUy-10" edge="1">
          <mxGeometry width="50" height="50" relative="1" as="geometry">
            <mxPoint x="745" y="400" as="sourcePoint" />
            <mxPoint x="745" y="430" as="targetPoint" />
          </mxGeometry>
        </mxCell>
        <mxCell id="BtmakRse8ogMZQEhPcUy-28" value="" style="endArrow=classic;html=1;rounded=0;exitX=0.5;exitY=1;exitDx=0;exitDy=0;entryX=0.5;entryY=0;entryDx=0;entryDy=0;" parent="1" source="BtmakRse8ogMZQEhPcUy-12" target="MDpw3FP15gddesKLYSIS-100" edge="1">
          <mxGeometry width="50" height="50" relative="1" as="geometry">
            <mxPoint x="755" y="410" as="sourcePoint" />
            <mxPoint x="755" y="440" as="targetPoint" />
          </mxGeometry>
        </mxCell>
        <mxCell id="BtmakRse8ogMZQEhPcUy-29" value="" style="endArrow=classic;html=1;rounded=0;exitX=0.5;exitY=1;exitDx=0;exitDy=0;" parent="1" source="MDpw3FP15gddesKLYSIS-100" target="BtmakRse8ogMZQEhPcUy-17" edge="1">
          <mxGeometry width="50" height="50" relative="1" as="geometry">
            <mxPoint x="765" y="420" as="sourcePoint" />
            <mxPoint x="765" y="450" as="targetPoint" />
          </mxGeometry>
        </mxCell>
        <mxCell id="BtmakRse8ogMZQEhPcUy-30" value="" style="endArrow=classic;html=1;rounded=0;exitX=0.5;exitY=1;exitDx=0;exitDy=0;" parent="1" source="BtmakRse8ogMZQEhPcUy-10" target="BtmakRse8ogMZQEhPcUy-15" edge="1">
          <mxGeometry width="50" height="50" relative="1" as="geometry">
            <mxPoint x="775" y="430" as="sourcePoint" />
            <mxPoint x="775" y="460" as="targetPoint" />
          </mxGeometry>
        </mxCell>
        <mxCell id="BtmakRse8ogMZQEhPcUy-31" value="" style="endArrow=classic;html=1;rounded=0;exitX=0.5;exitY=1;exitDx=0;exitDy=0;entryX=0.5;entryY=0;entryDx=0;entryDy=0;" parent="1" source="BtmakRse8ogMZQEhPcUy-15" target="BtmakRse8ogMZQEhPcUy-16" edge="1">
          <mxGeometry width="50" height="50" relative="1" as="geometry">
            <mxPoint x="785" y="440" as="sourcePoint" />
            <mxPoint x="785" y="470" as="targetPoint" />
          </mxGeometry>
        </mxCell>
        <mxCell id="BtmakRse8ogMZQEhPcUy-32" value="" style="endArrow=classic;html=1;rounded=0;exitX=0.5;exitY=1;exitDx=0;exitDy=0;entryX=0.5;entryY=0;entryDx=0;entryDy=0;exitPerimeter=0;" parent="1" source="BtmakRse8ogMZQEhPcUy-17" target="BtmakRse8ogMZQEhPcUy-20" edge="1">
          <mxGeometry width="50" height="50" relative="1" as="geometry">
            <mxPoint x="862.5" y="580" as="sourcePoint" />
            <mxPoint x="862.5" y="614" as="targetPoint" />
          </mxGeometry>
        </mxCell>
        <mxCell id="BtmakRse8ogMZQEhPcUy-33" value="" style="endArrow=classic;html=1;rounded=0;exitX=0.5;exitY=1;exitDx=0;exitDy=0;entryX=0.5;entryY=0;entryDx=0;entryDy=0;entryPerimeter=0;" parent="1" source="BtmakRse8ogMZQEhPcUy-16" target="MDpw3FP15gddesKLYSIS-92" edge="1">
          <mxGeometry width="50" height="50" relative="1" as="geometry">
            <mxPoint x="872.5" y="590" as="sourcePoint" />
            <mxPoint x="872.5" y="624" as="targetPoint" />
          </mxGeometry>
        </mxCell>
        <mxCell id="BtmakRse8ogMZQEhPcUy-34" value="" style="endArrow=classic;html=1;rounded=0;exitX=0.5;exitY=1;exitDx=0;exitDy=0;entryX=0.45;entryY=0;entryDx=0;entryDy=0;entryPerimeter=0;" parent="1" source="BtmakRse8ogMZQEhPcUy-20" target="BtmakRse8ogMZQEhPcUy-19" edge="1">
          <mxGeometry width="50" height="50" relative="1" as="geometry">
            <mxPoint x="882.5" y="600" as="sourcePoint" />
            <mxPoint x="882.5" y="634" as="targetPoint" />
          </mxGeometry>
        </mxCell>
        <mxCell id="BtmakRse8ogMZQEhPcUy-35" value="" style="endArrow=classic;html=1;rounded=0;exitX=0.532;exitY=0.826;exitDx=0;exitDy=0;entryX=0.5;entryY=0;entryDx=0;entryDy=0;exitPerimeter=0;entryPerimeter=0;" parent="1" source="MDpw3FP15gddesKLYSIS-92" target="MDpw3FP15gddesKLYSIS-93" edge="1">
          <mxGeometry width="50" height="50" relative="1" as="geometry">
            <mxPoint x="892.5" y="610" as="sourcePoint" />
            <mxPoint x="892.5" y="644" as="targetPoint" />
          </mxGeometry>
        </mxCell>
        <mxCell id="BtmakRse8ogMZQEhPcUy-36" value="" style="endArrow=classic;html=1;rounded=0;exitX=0.486;exitY=0.884;exitDx=0;exitDy=0;entryX=0.93;entryY=0.5;entryDx=0;entryDy=0;exitPerimeter=0;entryPerimeter=0;" parent="1" source="BtmakRse8ogMZQEhPcUy-19" target="MDpw3FP15gddesKLYSIS-93" edge="1">
          <mxGeometry width="50" height="50" relative="1" as="geometry">
            <mxPoint x="902.5" y="620" as="sourcePoint" />
            <mxPoint x="902.5" y="654" as="targetPoint" />
            <Array as="points">
              <mxPoint x="1011" y="940" />
            </Array>
          </mxGeometry>
        </mxCell>
        <mxCell id="BtmakRse8ogMZQEhPcUy-37" value="" style="endArrow=classic;html=1;rounded=0;exitX=0.5;exitY=1;exitDx=0;exitDy=0;entryX=0.5;entryY=0;entryDx=0;entryDy=0;entryPerimeter=0;" parent="1" source="MDpw3FP15gddesKLYSIS-91" target="BtmakRse8ogMZQEhPcUy-38" edge="1">
          <mxGeometry width="50" height="50" relative="1" as="geometry">
            <mxPoint x="912.5" y="630" as="sourcePoint" />
            <mxPoint x="912.5" y="664" as="targetPoint" />
          </mxGeometry>
        </mxCell>
        <mxCell id="BtmakRse8ogMZQEhPcUy-38" value="&quot;Usuario creado exitosamente&quot;" style="strokeWidth=2;html=1;shape=mxgraph.flowchart.document2;whiteSpace=wrap;size=0.25;" parent="1" vertex="1">
          <mxGeometry x="640" y="570" width="110" height="69" as="geometry" />
        </mxCell>
        <mxCell id="BtmakRse8ogMZQEhPcUy-40" value="" style="endArrow=classic;html=1;rounded=0;exitX=0.473;exitY=0.884;exitDx=0;exitDy=0;entryX=0;entryY=0.5;entryDx=0;entryDy=0;exitPerimeter=0;entryPerimeter=0;" parent="1" source="BtmakRse8ogMZQEhPcUy-38" target="MDpw3FP15gddesKLYSIS-93" edge="1">
          <mxGeometry width="50" height="50" relative="1" as="geometry">
            <mxPoint x="866.02" y="766.9939999999999" as="sourcePoint" />
            <mxPoint x="865" y="920" as="targetPoint" />
            <Array as="points">
              <mxPoint x="692" y="940" />
            </Array>
          </mxGeometry>
        </mxCell>
        <mxCell id="BtmakRse8ogMZQEhPcUy-41" value="" style="endArrow=classic;html=1;rounded=0;exitX=0.5;exitY=1;exitDx=0;exitDy=0;entryX=0.5;entryY=0;entryDx=0;entryDy=0;exitPerimeter=0;" parent="1" source="MDpw3FP15gddesKLYSIS-93" target="MDpw3FP15gddesKLYSIS-94" edge="1">
          <mxGeometry width="50" height="50" relative="1" as="geometry">
            <mxPoint x="862.5" y="670" as="sourcePoint" />
            <mxPoint x="862.5" y="710" as="targetPoint" />
          </mxGeometry>
        </mxCell>
        <mxCell id="BtmakRse8ogMZQEhPcUy-42" value="" style="endArrow=classic;html=1;rounded=0;exitX=0.5;exitY=1;exitDx=0;exitDy=0;entryX=0.5;entryY=0;entryDx=0;entryDy=0;entryPerimeter=0;" parent="1" source="MDpw3FP15gddesKLYSIS-94" target="BtmakRse8ogMZQEhPcUy-22" edge="1">
          <mxGeometry width="50" height="50" relative="1" as="geometry">
            <mxPoint x="872.5" y="680" as="sourcePoint" />
            <mxPoint x="872.5" y="720" as="targetPoint" />
          </mxGeometry>
        </mxCell>
        <mxCell id="BtmakRse8ogMZQEhPcUy-43" value="" style="endArrow=classic;html=1;rounded=0;exitX=0.5;exitY=1;exitDx=0;exitDy=0;exitPerimeter=0;entryX=1;entryY=0.5;entryDx=0;entryDy=0;" parent="1" source="BtmakRse8ogMZQEhPcUy-22" target="MDpw3FP15gddesKLYSIS-47" edge="1">
          <mxGeometry width="50" height="50" relative="1" as="geometry">
            <mxPoint x="882.5" y="690" as="sourcePoint" />
            <mxPoint x="855" y="1340" as="targetPoint" />
            <Array as="points">
              <mxPoint x="855" y="1460" />
            </Array>
          </mxGeometry>
        </mxCell>
        <mxCell id="BtmakRse8ogMZQEhPcUy-44" value="SI" style="text;html=1;strokeColor=none;fillColor=none;align=center;verticalAlign=middle;whiteSpace=wrap;rounded=0;" parent="1" vertex="1">
          <mxGeometry x="700" y="270" width="30" height="20" as="geometry" />
        </mxCell>
        <mxCell id="BtmakRse8ogMZQEhPcUy-45" value="SI" style="text;html=1;strokeColor=none;fillColor=none;align=center;verticalAlign=middle;whiteSpace=wrap;rounded=0;" parent="1" vertex="1">
          <mxGeometry x="855" y="270" width="30" height="20" as="geometry" />
        </mxCell>
        <mxCell id="BtmakRse8ogMZQEhPcUy-46" value="SI" style="text;html=1;strokeColor=none;fillColor=none;align=center;verticalAlign=middle;whiteSpace=wrap;rounded=0;" parent="1" vertex="1">
          <mxGeometry x="1010" y="270" width="30" height="20" as="geometry" />
        </mxCell>
        <mxCell id="BtmakRse8ogMZQEhPcUy-47" value="SI" style="text;html=1;strokeColor=none;fillColor=none;align=center;verticalAlign=middle;whiteSpace=wrap;rounded=0;" parent="1" vertex="1">
          <mxGeometry x="1010" y="710" width="30" height="20" as="geometry" />
        </mxCell>
        <mxCell id="BtmakRse8ogMZQEhPcUy-48" value="NO" style="text;html=1;strokeColor=none;fillColor=none;align=center;verticalAlign=middle;whiteSpace=wrap;rounded=0;" parent="1" vertex="1">
          <mxGeometry x="755" y="180" width="30" height="20" as="geometry" />
        </mxCell>
        <mxCell id="BtmakRse8ogMZQEhPcUy-49" value="NO" style="text;html=1;strokeColor=none;fillColor=none;align=center;verticalAlign=middle;whiteSpace=wrap;rounded=0;" parent="1" vertex="1">
          <mxGeometry x="907.5" y="180" width="30" height="20" as="geometry" />
        </mxCell>
        <mxCell id="BtmakRse8ogMZQEhPcUy-50" value="NO" style="text;html=1;strokeColor=none;fillColor=none;align=center;verticalAlign=middle;whiteSpace=wrap;rounded=0;" parent="1" vertex="1">
          <mxGeometry x="860" y="1250" width="30" height="20" as="geometry" />
        </mxCell>
        <mxCell id="BtmakRse8ogMZQEhPcUy-51" value="" style="endArrow=classic;html=1;rounded=0;exitX=1;exitY=0.5;exitDx=0;exitDy=0;exitPerimeter=0;" parent="1" source="BtmakRse8ogMZQEhPcUy-3" edge="1">
          <mxGeometry width="50" height="50" relative="1" as="geometry">
            <mxPoint x="917.5" y="220" as="sourcePoint" />
            <mxPoint x="1100" y="210" as="targetPoint" />
          </mxGeometry>
        </mxCell>
        <mxCell id="BtmakRse8ogMZQEhPcUy-52" value="B" style="ellipse;whiteSpace=wrap;html=1;aspect=fixed;" parent="1" vertex="1">
          <mxGeometry x="1100" y="195" width="30" height="30" as="geometry" />
        </mxCell>
        <mxCell id="BtmakRse8ogMZQEhPcUy-54" value="B" style="ellipse;whiteSpace=wrap;html=1;aspect=fixed;" parent="1" vertex="1">
          <mxGeometry x="338" y="246" width="30" height="30" as="geometry" />
        </mxCell>
        <mxCell id="BtmakRse8ogMZQEhPcUy-55" value="" style="endArrow=classic;html=1;rounded=0;exitX=1;exitY=0.5;exitDx=0;exitDy=0;exitPerimeter=0;" parent="1" source="BtmakRse8ogMZQEhPcUy-17" edge="1">
          <mxGeometry width="50" height="50" relative="1" as="geometry">
            <mxPoint x="1110" y="780" as="sourcePoint" />
            <mxPoint x="1090" y="660" as="targetPoint" />
          </mxGeometry>
        </mxCell>
        <mxCell id="BtmakRse8ogMZQEhPcUy-56" value="B" style="ellipse;whiteSpace=wrap;html=1;aspect=fixed;" parent="1" vertex="1">
          <mxGeometry x="1090" y="645" width="30" height="30" as="geometry" />
        </mxCell>
        <mxCell id="BtmakRse8ogMZQEhPcUy-59" value="" style="endArrow=classic;html=1;rounded=0;exitX=1;exitY=0.5;exitDx=0;exitDy=0;" parent="1" source="BtmakRse8ogMZQEhPcUy-54" edge="1">
          <mxGeometry width="50" height="50" relative="1" as="geometry">
            <mxPoint x="453" y="271" as="sourcePoint" />
            <mxPoint x="400" y="260" as="targetPoint" />
          </mxGeometry>
        </mxCell>
        <mxCell id="BtmakRse8ogMZQEhPcUy-60" value="" style="endArrow=classic;html=1;rounded=0;exitX=0.992;exitY=0.44;exitDx=0;exitDy=0;entryX=1;entryY=0.25;entryDx=0;entryDy=0;exitPerimeter=0;" parent="1" source="MDpw3FP15gddesKLYSIS-62" target="MDpw3FP15gddesKLYSIS-60" edge="1">
          <mxGeometry width="50" height="50" relative="1" as="geometry">
            <mxPoint x="470" y="500" as="sourcePoint" />
            <mxPoint x="465" y="400" as="targetPoint" />
            <Array as="points">
              <mxPoint x="590" y="764" />
              <mxPoint x="590" y="580" />
            </Array>
          </mxGeometry>
        </mxCell>
        <mxCell id="BtmakRse8ogMZQEhPcUy-61" value="SI" style="text;html=1;strokeColor=none;fillColor=none;align=center;verticalAlign=middle;whiteSpace=wrap;rounded=0;" parent="1" vertex="1">
          <mxGeometry x="520" y="820" width="30" height="20" as="geometry" />
        </mxCell>
        <mxCell id="BtmakRse8ogMZQEhPcUy-62" value="NO" style="text;html=1;strokeColor=none;fillColor=none;align=center;verticalAlign=middle;whiteSpace=wrap;rounded=0;" parent="1" vertex="1">
          <mxGeometry x="585" y="740" width="30" height="20" as="geometry" />
        </mxCell>
        <mxCell id="BtmakRse8ogMZQEhPcUy-63" value="" style="endArrow=classic;html=1;rounded=0;exitX=1;exitY=0.5;exitDx=0;exitDy=0;exitPerimeter=0;" parent="1" source="BtmakRse8ogMZQEhPcUy-22" edge="1">
          <mxGeometry width="50" height="50" relative="1" as="geometry">
            <mxPoint x="310" y="1050" as="sourcePoint" />
            <mxPoint x="1000" y="1170" as="targetPoint" />
          </mxGeometry>
        </mxCell>
        <mxCell id="BtmakRse8ogMZQEhPcUy-64" value="B" style="ellipse;whiteSpace=wrap;html=1;aspect=fixed;" parent="1" vertex="1">
          <mxGeometry x="997.5" y="1155" width="30" height="30" as="geometry" />
        </mxCell>
        <mxCell id="BtmakRse8ogMZQEhPcUy-65" value="SI" style="text;html=1;strokeColor=none;fillColor=none;align=center;verticalAlign=middle;whiteSpace=wrap;rounded=0;" parent="1" vertex="1">
          <mxGeometry x="927.5" y="1150" width="30" height="20" as="geometry" />
        </mxCell>
        <mxCell id="umUFj-V5khbd5GSOYIUC-9" value="" style="edgeStyle=orthogonalEdgeStyle;rounded=0;orthogonalLoop=1;jettySize=auto;html=1;" edge="1" parent="1" source="umUFj-V5khbd5GSOYIUC-1" target="umUFj-V5khbd5GSOYIUC-8">
          <mxGeometry relative="1" as="geometry" />
        </mxCell>
        <mxCell id="umUFj-V5khbd5GSOYIUC-1" value="Descripción de la solución&lt;br&gt;+Modificación de estatus del ticket&lt;br&gt;+comentarios" style="shape=parallelogram;html=1;strokeWidth=2;perimeter=parallelogramPerimeter;whiteSpace=wrap;rounded=1;arcSize=12;size=0.23;" vertex="1" parent="1">
          <mxGeometry x="120" y="1180.5" width="250" height="60" as="geometry" />
        </mxCell>
        <mxCell id="umUFj-V5khbd5GSOYIUC-10" value="" style="edgeStyle=orthogonalEdgeStyle;rounded=0;orthogonalLoop=1;jettySize=auto;html=1;" edge="1" parent="1" source="umUFj-V5khbd5GSOYIUC-8" target="MDpw3FP15gddesKLYSIS-45">
          <mxGeometry relative="1" as="geometry" />
        </mxCell>
        <mxCell id="umUFj-V5khbd5GSOYIUC-8" value="Botón aceptar" style="rounded=1;whiteSpace=wrap;html=1;" vertex="1" parent="1">
          <mxGeometry x="195" y="1260" width="100" height="40" as="geometry" />
        </mxCell>
        <mxCell id="umUFj-V5khbd5GSOYIUC-14" value="" style="edgeStyle=orthogonalEdgeStyle;rounded=0;orthogonalLoop=1;jettySize=auto;html=1;" edge="1" parent="1" source="umUFj-V5khbd5GSOYIUC-11" target="MDpw3FP15gddesKLYSIS-25">
          <mxGeometry relative="1" as="geometry" />
        </mxCell>
        <mxCell id="umUFj-V5khbd5GSOYIUC-11" value="Se asigna al responsable de área o asignar ticket&amp;nbsp;" style="rounded=1;whiteSpace=wrap;html=1;" vertex="1" parent="1">
          <mxGeometry x="10" y="1010" width="120" height="60" as="geometry" />
        </mxCell>
        <mxCell id="umUFj-V5khbd5GSOYIUC-15" value="" style="strokeWidth=2;html=1;shape=mxgraph.flowchart.annotation_2;align=left;labelPosition=right;pointerEvents=1;direction=west;" vertex="1" parent="1">
          <mxGeometry x="-40" y="990" width="50" height="100" as="geometry" />
        </mxCell>
        <mxCell id="umUFj-V5khbd5GSOYIUC-18" style="edgeStyle=orthogonalEdgeStyle;rounded=0;orthogonalLoop=1;jettySize=auto;html=1;entryX=0.5;entryY=0;entryDx=0;entryDy=0;" edge="1" parent="1" source="umUFj-V5khbd5GSOYIUC-16" target="MDpw3FP15gddesKLYSIS-16">
          <mxGeometry relative="1" as="geometry" />
        </mxCell>
        <mxCell id="umUFj-V5khbd5GSOYIUC-16" value="+Colocar área o catalogo&amp;nbsp;&lt;br&gt;+una descripción&amp;nbsp;&lt;br&gt;+Archivo adjunto(opcional)" style="shape=parallelogram;html=1;strokeWidth=2;perimeter=parallelogramPerimeter;whiteSpace=wrap;rounded=1;arcSize=12;size=0.23;" vertex="1" parent="1">
          <mxGeometry x="25" y="276" width="210" height="80" as="geometry" />
        </mxCell>
        <mxCell id="umUFj-V5khbd5GSOYIUC-19" value="" style="strokeWidth=2;html=1;shape=mxgraph.flowchart.annotation_2;align=left;labelPosition=right;pointerEvents=1;direction=west;" vertex="1" parent="1">
          <mxGeometry x="-18" y="266" width="65" height="100" as="geometry" />
        </mxCell>
        <mxCell id="umUFj-V5khbd5GSOYIUC-20" value="debe generar automáticamente el nombre de usuario&amp;nbsp;&lt;br&gt;+Archivos adjuntos (PDF, office, imagen)" style="rounded=1;whiteSpace=wrap;html=1;" vertex="1" parent="1">
          <mxGeometry x="-120" y="276" width="130" height="80" as="geometry" />
        </mxCell>
      </root>
    </mxGraphModel>
  </diagram>
</mxfile>
